# xmcd
#
# Track frame offsets:
#	150
#	18457
#	35487
#	54774
#	75436
#	95393
#	131452
#	147187
#	159180
#	176167
#	195150
#	213108
#	231260
#	245733
#	253941
#	271022
#	282055
#	302020
#	326111
#	341993
#
# Disc length: 4747 seconds
#
# Revision: 0
# Processed by: cddbd v1.5PL3 Copyright (c) Steve Scherf et al.
# Submitted via: MusicManager 7.0.3.0 
#
DISCID=10128914
DTITLE=Janis Joplin - As 20 Mais de Janis Joplin
DYEAR=1900
DGENRE=blues
TTITLE0=Summertime
TTITLE1=Maybe
TTITLE2=Piece Of My Heart
TTITLE3=Me and Bob McGee
TTITLE4=Kozmic Blues
TTITLE5=Ball and Chain
TTITLE6=Get It While
TTITLE7=Bye, Bye Baby 
TTITLE8=Move Over
TTITLE9=One Good Man
TTITLE10=Try
TTITLE11=Cry Baby
TTITLE12=Down on Me
TTITLE13=Mercedes Benz
TTITLE14=My Baby
TTITLE15=Son Of A Preacher Man
TTITLE16=Fare Well Song
TTITLE17=To Love Somebody
TTITLE18=A Woman Left Lonely
TTITLE19=I Can't Stand The Rain
EXTD=
EXTT0=
EXTT1=
EXTT2=
EXTT3=
EXTT4=
EXTT5=
EXTT6=
EXTT7=
EXTT8=
EXTT9=
EXTT10=
EXTT11=
EXTT12=
EXTT13=
EXTT14=
EXTT15=
EXTT16=
EXTT17=
EXTT18=
EXTT19=
PLAYORDER=
